<?xml version="1.0" standalone="no"?><!DOCTYPE svg PUBLIC "-//W3C//DTD SVG 1.1//EN" "http://www.w3.org/Graphics/SVG/1.1/DTD/svg11.dtd"><svg t="1554963240037" class="icon" style="" viewBox="0 0 2235 1024" version="1.1" xmlns="http://www.w3.org/2000/svg" p-id="5946" xmlns:xlink="http://www.w3.org/1999/xlink" width="558.75" height="256"><defs><style type="text/css"></style></defs><path d="M1492.732394 96.630986c-4.326761 0-7.211268-2.884507-7.211267-7.211268V63.459155c0-4.326761 2.884507-7.211268 7.211267-7.211268s7.211268 2.884507 7.211268 7.211268v25.960563c-1.442254 4.326761-4.326761 7.211268-7.211268 7.211268" fill="#333333" p-id="5947"></path><path d="M1876.371831 331.71831h-475.943662c-15.864789 0-30.287324 10.095775-30.287324 21.633803v574.016901c0 11.538028 14.422535 21.633803 30.287324 21.633803h592.766197c17.307042 0 30.287324-10.095775 30.287324-21.633803v-490.366197L1876.371831 331.71831z" fill="#FFFFFF" p-id="5948"></path><path d="M1393.216901 344.698592c-12.980282 0-24.51831 7.211268-24.518309 15.864788v574.016902c0 8.653521 11.538028 15.864789 24.518309 15.864788h592.766198c12.980282 0 24.51831-7.211268 24.518309-15.864788V447.098592l-144.225352-102.4H1393.216901z m592.766198 618.72676H1393.216901c-20.191549 0-37.498592-12.980282-37.498591-28.84507V360.56338c0-15.864789 17.307042-28.84507 37.498591-28.84507h475.943662c1.442254 0 2.884507 0 4.326761 1.442253l148.552113 105.284507c1.442254 1.442254 2.884507 2.884507 2.884507 5.769015v490.366197c-1.442254 15.864789-18.749296 28.84507-38.940845 28.84507z" fill="#333333" p-id="5949"></path><path d="M1890.794366 439.887324h119.707042L1860.507042 331.71831v85.092958c0 12.980282 14.422535 23.076056 30.287324 23.076056" fill="#05A4E2" p-id="5950"></path><path d="M1872.04507 347.583099v74.997183c0 8.653521 11.538028 15.864789 25.960564 15.864788h102.4l-128.360564-90.861971z m145.667606 102.4h-119.707042c-20.191549 0-36.056338-12.980282-36.056338-27.402817v-85.092958c0-1.442254 1.442254-4.326761 2.884507-4.326761 1.442254-1.442254 4.326761-1.442254 5.769014 0l151.43662 108.169014c1.442254 1.442254 2.884507 4.326761 1.442253 5.769015-1.442254 1.442254-4.326761 2.884507-5.769014 2.884507z" fill="#333333" p-id="5951"></path><path d="M1456.676056 576.901408h478.828169" fill="#FFFFFF" p-id="5952"></path><path d="M1941.273239 575.459155h-478.828169c-4.326761 0-7.211268-2.884507-7.211267-7.211268s2.884507-7.211268 7.211267-7.211267h478.828169c4.326761 0 7.211268 2.884507 7.211268 7.211267s-2.884507 7.211268-7.211268 7.211268" fill="#333333" p-id="5953"></path><path d="M1456.676056 620.169014h478.828169" fill="#FFFFFF" p-id="5954"></path><path d="M1941.273239 618.726761h-478.828169c-4.326761 0-7.211268-2.884507-7.211267-7.211268s2.884507-7.211268 7.211267-7.211268h478.828169c4.326761 0 7.211268 2.884507 7.211268 7.211268s-2.884507 7.211268-7.211268 7.211268" fill="#333333" p-id="5955"></path><path d="M1456.676056 663.43662h478.828169" fill="#FFFFFF" p-id="5956"></path><path d="M1941.273239 676.416901h-478.828169c-4.326761 0-7.211268-2.884507-7.211267-7.211267s2.884507-7.211268 7.211267-7.211268h478.828169c4.326761 0 7.211268 2.884507 7.211268 7.211268s-2.884507 7.211268-7.211268 7.211267" fill="#333333" p-id="5957"></path><path d="M1104.766197 949.002817V364.890141c0-10.095775-8.653521-18.749296-18.749296-18.749296h-923.042253c-10.095775 0-18.749296 8.653521-18.749296 18.749296v584.112676h960.540845z" fill="#FFFFFF" p-id="5958"></path><path d="M142.783099 949.002817h947.560563v-576.901409c0-7.211268-5.769014-12.980282-12.980282-12.980281H155.76338c-7.211268 0-12.980282 5.769014-12.980281 12.980281v576.901409z m953.329577 12.980282H137.014085c-4.326761 0-7.211268-2.884507-7.211268-7.211268V372.101408c0-14.422535 11.538028-25.960563 25.960563-25.960563h921.6c14.422535 0 25.960563 11.538028 25.960564 25.960563v584.112677c0 2.884507-2.884507 5.769014-7.211268 5.769014z" fill="#333333" p-id="5959"></path><path d="M1104.766197 432.676056v-67.785915c0-10.095775-8.653521-18.749296-18.749296-18.749296h-923.042253c-10.095775 0-18.749296 8.653521-18.749296 18.749296V432.676056h960.540845z" fill="#FFFFFF" p-id="5960"></path><path d="M142.783099 432.676056h947.560563v-60.574648c0-7.211268-5.769014-12.980282-12.980282-12.980281H155.76338c-7.211268 0-12.980282 5.769014-12.980281 12.980281V432.676056z m953.329577 12.980282H137.014085c-4.326761 0-7.211268-2.884507-7.211268-7.211268v-67.785915c0-14.422535 11.538028-25.960563 25.960563-25.960563h921.6c14.422535 0 25.960563 11.538028 25.960564 25.960563v67.785915c0 4.326761-2.884507 7.211268-7.211268 7.211268z" fill="#333333" p-id="5961"></path><path d="M216.338028 389.408451h18.749296" fill="#FFFFFF" p-id="5962"></path><path d="M242.298592 402.388732h-18.749296c-4.326761 0-7.211268-2.884507-7.211268-7.211267s2.884507-7.211268 7.211268-7.211268h18.749296c4.326761 0 7.211268 2.884507 7.211267 7.211268s-2.884507 7.211268-7.211267 7.211267" fill="#333333" p-id="5963"></path><path d="M259.605634 389.408451h18.749296" fill="#FFFFFF" p-id="5964"></path><path d="M285.566197 402.388732h-18.749296c-4.326761 0-7.211268-2.884507-7.211267-7.211267s2.884507-7.211268 7.211267-7.211268h18.749296c4.326761 0 7.211268 2.884507 7.211268 7.211268s-2.884507 7.211268-7.211268 7.211267" fill="#333333" p-id="5965"></path><path d="M187.492958 389.408451h18.749296" fill="#FFFFFF" p-id="5966"></path><path d="M199.030986 402.388732h-18.749296c-4.326761 0-7.211268-2.884507-7.211267-7.211267s2.884507-7.211268 7.211267-7.211268h18.749296c4.326761 0 7.211268 2.884507 7.211268 7.211268s-2.884507 7.211268-7.211268 7.211267" fill="#333333" p-id="5967"></path><path d="M230.760563 576.901408h340.371831" fill="#FFFFFF" p-id="5968"></path><path d="M563.921127 575.459155H223.549296c-4.326761 0-7.211268-2.884507-7.211268-7.211268s2.884507-7.211268 7.211268-7.211267h340.371831c4.326761 0 7.211268 2.884507 7.211267 7.211267s-4.326761 7.211268-7.211267 7.211268" fill="#333333" p-id="5969"></path><path d="M230.760563 620.169014h340.371831" fill="#FFFFFF" p-id="5970"></path><path d="M563.921127 618.726761H223.549296c-4.326761 0-7.211268-2.884507-7.211268-7.211268s2.884507-7.211268 7.211268-7.211268h340.371831c4.326761 0 7.211268 2.884507 7.211267 7.211268s-4.326761 7.211268-7.211267 7.211268" fill="#333333" p-id="5971"></path><path d="M230.760563 663.43662h340.371831" fill="#FFFFFF" p-id="5972"></path><path d="M563.921127 676.416901H223.549296c-4.326761 0-7.211268-2.884507-7.211268-7.211267s2.884507-7.211268 7.211268-7.211268h340.371831c4.326761 0 7.211268 2.884507 7.211267 7.211268-1.442254 4.326761-4.326761 7.211268-7.211267 7.211267" fill="#333333" p-id="5973"></path><path d="M1416.292958 173.070423H749.971831L533.633803 504.788732v483.15493c0 15.864789 11.538028 28.84507 25.960563 28.84507h1045.633803c14.422535 0 25.960563-12.980282 25.960563-28.84507V504.788732L1416.292958 173.070423z" fill="#FFFFFF" p-id="5974"></path><path d="M532.191549 499.019718V980.732394c0 12.980282 8.653521 23.076056 20.19155 23.076057h1045.633802c11.538028 0 20.191549-10.095775 20.19155-23.076057V499.019718L1404.75493 171.628169H745.64507L532.191549 499.019718z m1065.825352 517.769014H552.383099C533.633803 1016.788732 519.211268 1000.923944 519.211268 980.732394V496.135211c0-1.442254 0-2.884507 1.442253-4.32676l216.338028-331.71831c1.442254-1.442254 2.884507-2.884507 5.769014-2.884507h664.878874c2.884507 0 4.326761 1.442254 5.769014 2.884507l216.338028 331.71831c0 1.442254 1.442254 2.884507 1.442253 4.32676V980.732394c0 20.191549-14.422535 36.056338-33.171831 36.056338z" fill="#333333" p-id="5975"></path><path d="M1240.338028 897.08169H924.484507c-17.307042 0-30.287324-5.769014-30.287324-12.980282v-5.769014c0-7.211268 12.980282-12.980282 30.287324-12.980281H1240.338028c17.307042 0 30.287324 5.769014 30.287324 12.980281v5.769014c0 7.211268-14.422535 12.980282-30.287324 12.980282" fill="#C5ECFF" p-id="5976"></path><path d="M917.273239 863.909859c-14.422535 0-23.076056 4.326761-23.076056 7.211268v5.769014c0 1.442254 8.653521 5.769014 23.076056 5.769014h315.853522c14.422535 0 23.076056-4.326761 23.076056-7.211268v-5.769014c0-1.442254-8.653521-5.769014-23.076056-5.769014H917.273239z m314.411268 31.729578H917.273239c-18.749296 0-37.498592-7.211268-37.498591-20.19155v-5.769014c0-12.980282 18.749296-20.191549 37.498591-20.191549h315.853522c18.749296 0 37.498592 7.211268 37.498591 20.191549v5.769014c-1.442254 12.980282-20.191549 20.191549-38.940845 20.19155z" fill="#333333" p-id="5977"></path><path d="M1589.36338 500.461972L1400.428169 201.915493H767.278873L576.901408 500.461972h181.723944v173.070422c0 15.864789 11.538028 28.84507 25.960563 28.845071h598.535212c14.422535 0 25.960563-12.980282 25.960563-28.845071v-173.070422h180.28169z" fill="#C7E8FF" p-id="5978"></path><path d="M581.228169 500.461972H749.971831c4.326761 0 7.211268 2.884507 7.211268 7.211267v173.070423c0 12.980282 8.653521 23.076056 20.191549 23.076056h598.535211c11.538028 0 20.191549-10.095775 20.191549-23.076056v-173.070423c0-4.326761 2.884507-7.211268 7.211268-7.211267H1572.056338L1388.890141 214.895775H762.952113L581.228169 500.461972z m793.239437 216.338028H775.932394c-18.749296 0-33.171831-15.864789-33.171831-36.056338V514.884507h-173.070422c-2.884507 0-4.326761-1.442254-5.769014-2.884507-1.442254-1.442254-1.442254-4.326761 0-7.211268l190.377465-298.546478c1.442254-1.442254 2.884507-2.884507 5.769014-2.884508h633.149295c2.884507 0 4.326761 1.442254 5.769014 2.884508L1587.921127 504.788732c1.442254 1.442254 1.442254 4.326761 0 7.211268-1.442254 1.442254-2.884507 2.884507-5.769014 2.884507H1407.639437v165.859155c0 18.749296-14.422535 36.056338-33.171831 36.056338z" fill="#333333" p-id="5979"></path><path d="M946.11831 100.957746l25.960563 50.478874 56.247888 8.653521-40.383099 38.940845 8.653521 56.247887-50.478873-25.960563-49.03662 25.960563 8.653521-56.247887-40.383098-38.940845 56.247887-8.653521z" fill="#05A4E2" p-id="5980"></path><path d="M937.464789 229.31831h2.884507l40.383098 21.633803-7.211267-44.709859c0-1.442254 0-4.326761 1.442253-4.326761l33.171831-31.729578-44.709859-7.211267c-1.442254 0-2.884507-1.442254-4.32676-2.884507L937.464789 118.264789 917.273239 158.647887c-1.442254 1.442254-2.884507 2.884507-4.32676 2.884507l-44.709859 7.211268 33.171831 31.729577c1.442254 1.442254 1.442254 2.884507 1.442253 4.326761l-8.653521 46.152113 40.383099-21.633803h2.884507m50.478873 37.498591h-2.884507L937.464789 240.856338l-47.594366 24.51831c-1.442254 1.442254-4.326761 1.442254-5.769015 0-1.442254-1.442254-2.884507-2.884507-2.884507-5.769014l8.653522-53.36338-38.940846-37.498592v-5.769014c0-1.442254 2.884507-2.884507 4.326761-4.326761l53.36338-7.211267 24.51831-49.03662c1.442254-4.326761 8.653521-4.326761 10.095775 0l24.51831 49.03662 53.36338 7.211267c1.442254 0 4.326761 1.442254 4.326761 4.326761 0 1.442254 0 4.326761-1.442254 5.769014l-38.940845 37.498592 8.653521 53.36338c0 1.442254 0 4.326761-2.884507 5.769014 0 1.442254-1.442254 1.442254-2.884507 1.442253" fill="#333333" p-id="5981"></path><path d="M1674.456338 196.146479c0 99.515493-80.766197 181.723944-181.723944 181.723944S1312.450704 295.661972 1312.450704 196.146479 1393.216901 14.422535 1494.174648 14.422535s180.28169 80.766197 180.28169 181.723944" fill="#FFFFFF" p-id="5982"></path><path d="M1499.943662 12.980282C1403.312676 12.980282 1325.430986 90.861972 1325.430986 187.492958c0 96.630986 77.88169 174.512676 174.512676 174.512676 96.630986 0 174.512676-77.88169 174.512676-174.512676 0-96.630986-77.88169-174.512676-174.512676-174.512676m0 362.005633c-103.842254 0-187.492958-83.650704-187.492958-187.492957s83.650704-187.492958 187.492958-187.492958 187.492958 83.650704 187.492958 187.492958-83.650704 187.492958-187.492958 187.492957" fill="#333333" p-id="5983"></path><path d="M360.56338 721.126761h47.594366v47.594366H360.56338z" fill="#05A4E2" p-id="5984"></path><path d="M372.101408 768.721127h36.056338v-36.056338h-36.056338v36.056338z m41.825353 11.538028h-47.594367c-2.884507 0-5.769014-2.884507-5.769014-5.769014v-47.594366c0-2.884507 2.884507-5.769014 5.769014-5.769014h47.594367c2.884507 0 5.769014 2.884507 5.769014 5.769014v47.594366c0 2.884507-2.884507 5.769014-5.769014 5.769014z" fill="#333333" p-id="5985"></path><path d="M230.760563 721.126761h47.594367v47.594366H230.760563z" fill="#FFFFFF" p-id="5986"></path><path d="M243.740845 768.721127h34.614085v-34.614085h-34.614085v34.614085z m41.825352 12.980281h-47.594366c-4.326761 0-7.211268-2.884507-7.211268-7.211267v-47.594366c0-4.326761 2.884507-7.211268 7.211268-7.211268h47.594366c4.326761 0 7.211268 2.884507 7.211268 7.211268v47.594366c-1.442254 4.326761-4.326761 7.211268-7.211268 7.211267z" fill="#333333" p-id="5987"></path><path d="M1384.56338 245.183099h219.222535" fill="#FFFFFF" p-id="5988"></path><path d="M1610.997183 243.740845H1391.774648c-4.326761 0-7.211268-2.884507-7.211268-7.211268s2.884507-7.211268 7.211268-7.211267h219.222535c4.326761 0 7.211268 2.884507 7.211268 7.211267s-2.884507 7.211268-7.211268 7.211268" fill="#333333" p-id="5989"></path><path d="M1471.098592 259.605634c0 10.095775 8.653521 20.191549 18.749295 20.191549 10.095775 0 18.749296-8.653521 18.749296-20.191549" fill="#FFFFFF" p-id="5990"></path><path d="M1497.059155 292.777465c-14.422535 0-25.960563-11.538028-25.960563-25.960564 0-4.326761 2.884507-7.211268 7.211267-7.211267s7.211268 2.884507 7.211268 7.211267c0 7.211268 5.769014 12.980282 12.980281 12.980282s12.980282-5.769014 12.980282-12.980282c0-4.326761 2.884507-7.211268 7.211268-7.211267s7.211268 2.884507 7.211267 7.211267c-2.884507 14.422535-14.422535 25.960563-28.84507 25.960564" fill="#333333" p-id="5991"></path><path d="M1244.664789 447.098592l20.191549 38.940845 43.267606 7.211267-31.729578 30.287324 7.211268 43.267606-38.940845-20.191549-37.498592 20.191549 7.211268-43.267606-31.729578-30.287324 43.267606-7.211267z" fill="#05A4E2" p-id="5992"></path><path d="M1250.433803 545.171831h2.884507l28.84507 14.422535-5.769014-31.729577c0-1.442254 0-4.326761 1.442254-4.326761l23.076056-23.076056-31.729577-2.884507c-1.442254 0-2.884507-1.442254-4.326761-2.884507l-14.422535-28.845071-14.422535 28.845071c-1.442254 1.442254-2.884507 2.884507-4.326761 2.884507l-31.729577 4.32676 23.076056 23.076057c1.442254 1.442254 1.442254 2.884507 1.442253 4.32676l-5.769014 31.729578 28.845071-14.422535c1.442254-1.442254 2.884507-1.442254 2.884507-1.442254m38.940845 31.729577h-2.884507l-36.056338-18.749295-36.056338 18.749295c-1.442254 1.442254-4.326761 1.442254-5.769014 0-1.442254-1.442254-2.884507-2.884507-2.884507-5.769014l7.211267-40.383098-28.84507-28.845071c-1.442254-1.442254-1.442254-4.326761-1.442254-5.769014 0-1.442254 2.884507-2.884507 4.326761-4.32676l40.383098-5.769014 18.749296-36.056338c1.442254-4.326761 8.653521-4.326761 10.095775 0l18.749296 36.056338 40.383098 5.769014c1.442254 0 4.326761 1.442254 4.326761 4.32676 0 1.442254 0 4.326761-1.442254 5.769014l-28.84507 28.845071 7.211267 40.383098c0 1.442254 0 4.326761-2.884507 5.769014h-4.32676" fill="#333333" p-id="5993"></path><path d="M100.957746 1015.346479l2040.788733-5.769014" fill="#FFFFFF" p-id="5994"></path><path d="M100.943324 1001.457577l2040.788732-6.807436 0.043268 12.980282-2040.788732 6.807436z" fill="#333333" p-id="5995"></path><path d="M54.805634 1009.577465H0" fill="#FFFFFF" p-id="5996"></path><path d="M0 1009.577465h54.805634v12.980281H0z" fill="#333333" p-id="5997"></path><path d="M2232.608451 995.15493H2177.802817" fill="#FFFFFF" p-id="5998"></path><path d="M2177.802817 995.15493h54.805634v12.980281H2177.802817z" fill="#333333" p-id="5999"></path><path d="M1577.825352 246.625352v-62.016901c0-46.152113-37.498592-83.650704-82.208451-83.650705S1413.408451 138.456338 1413.408451 184.608451v62.016901h164.416901z" fill="#05A4E2" p-id="6000"></path><path d="M1424.946479 232.202817h152.878873v-56.247887c0-43.267606-34.614085-79.323944-76.439437-79.323944s-76.439437 34.614085-76.439436 79.323944v56.247887z m158.647887 11.538028H1419.177465c-2.884507 0-5.769014-2.884507-5.769014-5.769014v-62.016901c0-49.03662 38.940845-89.419718 87.977464-89.419719s87.977465 40.383099 87.977465 89.419719v62.016901c0 2.884507-2.884507 5.769014-5.769014 5.769014z" fill="#333333" p-id="6001"></path><path d="M1499.943662 72.112676v25.960563" fill="#05A4E2" p-id="6002"></path><path d="M1485.521127 72.112676h11.538028v25.960563h-11.538028z" fill="#333333" p-id="6003"></path></svg>